<svg xmlns="http://www.w3.org/2000/svg" width="154" height="196" viewBox="0 0 154 196">
  <g fill="#D3205C">
    <path d="M148.698,39.417 L116.964,5.585 C113.889,2.3 108.164,0 103.691,0 L10.246,0 C4.657,0 0,4.188 0,9.774 L0,186.227 C0,191.813 4.657,196 10.246,196 L143.762,196 C149.341,196 154,191.812 154,186.227 L154,52.763 C154,48.363 151.686,42.625 148.698,39.417 Z M140.693,43 L114,43 L114,13.806 L140.693,43 Z M146,186.227 C146,187.401 144.93,188 143.762,188 L10.246,188 C9.089,188 8,187.38 8,186.227 L8,9.774 C8,8.62 9.089,8 10.246,8 L103.691,8 C104.32,8 105,7.779 106,7.992 L106,46.627 C106,48.836 107.617,51 109.826,51 L145.586,51 C145.77,51 146,52.126 146,52.763 L146,186.227 L146,186.227 Z"/>
    <rect width="100" height="8" x="27" y="98"/>
    <rect width="100" height="8" x="27" y="67"/>
    <rect width="100" height="8" x="27" y="153"/>
    <rect width="100" height="8" x="27" y="122"/>
  </g>
</svg>
