<svg xmlns="http://www.w3.org/2000/svg" width="900" height="6" viewBox="0 0 900 6">
  <g fill="#D3205C" transform="translate(-1 -1)">
    <path d="M1.212 3.38C.74 3.533 1.014 3.879 2.315 3.811L3.238 3.223 1.212 3.38zM10.006 4.459C11.535 4.173 13.296 3.67 12.296 3.132 10.789 3.696 10.411 3.462 8.791 4.137 7.481 4.206 6.51 3.949 6.722 3.733 6.263 3.885 4.687 3.608 3.999 3.976 5.704 4.43 7.856 4.447 10.097 4.067 10.578 4.198 10.114 4.351 10.006 4.459L10.006 4.459zM137.608 5.264L136.784 5.196C137.011 5.232 137.289 5.254 137.608 5.264zM216.662 5.515C216.059 5.532 215.807 5.588 215.781 5.642 216.338 5.603 216.798 5.565 216.662 5.515zM230.171 6.149C229.879 6.13 229.633 6.124 229.372 6.11 229.677 6.165 229.982 6.194 230.171 6.149zM137.608 5.264L139.724 5.447C139.867 5.256 138.634 5.305 137.608 5.264zM27.581 3.027C27.143 3.057 26.774 3.112 26.435 3.184 26.8 3.158 27.151 3.137 27.517 3.121 27.535 3.088 27.552 3.062 27.581 3.027zM102.765 5.771L102.121 5.771C101.932 5.838 101.756 5.92 101.589 6.011L102.765 5.771zM76.019 5.884C76.628 5.904 76.83 5.405 77.058 5.19 76.718 5.395 76.272 5.493 75.744 5.533 75.735 5.627 75.812 5.739 76.019 5.884L76.019 5.884zM33.605 5.044L32.854 5.113C33.048 5.092 33.375 5.07 33.605 5.044zM121.908 5.86C121.951 5.932 122.046 5.999 122.153 6.038 122.153 5.976 122.055 5.916 121.908 5.86zM869.888 1.452C869.869 1.488 869.901 1.51 869.897 1.541 870.046 1.49 870.095 1.455 869.888 1.452zM900.924 3.894L900.483 3.92C900.444 4.016 900.395 4.109 900.395 4.202L900.924 3.894zM254.878 6.769C254.823 6.763 254.81 6.763 254.766 6.759 254.117 6.815 254.486 6.806 254.878 6.769zM481.626 6.199C479.06 5.756 485.81 5.623 481.93 5.132 482.294 5.328 478.426 5.913 481.626 6.199zM28.277 3.093C28.638 3.087 29.007 3.083 29.371 3.086 28.871 3.07 28.543 3.072 28.277 3.093zM481.934 5.132C481.934 5.131 481.934 5.128 481.934 5.128L481.538 5.082C481.696 5.104 481.789 5.115 481.934 5.132zM311.787 6.418C311.671 6.331 311.445 6.265 311.207 6.199 311.229 6.251 311.354 6.313 311.787 6.418zM269.377 5.745L270.426 5.811C270.011 5.767 269.674 5.752 269.377 5.745zM333.789 5.694C334.36 5.731 334.558 5.798 335.335 5.731 335.254 5.707 335.188 5.688 335.099 5.67 334.819 5.741 334.441 5.772 333.789 5.694zM356.703 5.672C356.582 5.633 356.424 5.607 356.281 5.569 356.059 5.58 355.785 5.588 355.561 5.598L356.703 5.672zM800.259 1.754C800.754 1.894 801.075 2.047 801.314 2.201 800.961 1.848 804.323 1.717 800.259 1.754zM27.603 3.309C27.737 3.184 27.925 3.121 28.277 3.093 28.015 3.099 27.759 3.11 27.517 3.121 27.444 3.194 27.436 3.266 27.603 3.309L27.603 3.309zM334.669 1.76L338.31 1.831C337.293 1.783 335.979 1.758 334.669 1.76zM635.875 1.969L636.715 1.908C636.381 1.899 636.086 1.914 635.875 1.969zM349.115 1.747C349.772 1.92 350.456 2.022 351.172 2.089 351.321 2.05 351.496 2.018 351.592 1.96L349.115 1.747zM801.317 2.206C801.313 2.204 801.313 2.201 801.313 2.201 801.313 2.201 801.313 2.203 801.317 2.206z"/>
    <path d="M825.286,1.001 C821.818,0.99 823.673,1.644 822.935,2.021 C818.803,2.211 821.018,1.541 819.604,1.208 C817.019,1.382 815.041,1.986 813.117,1.961 C812.975,1.855 812.597,1.815 813.037,1.68 C810.304,2.203 804.926,1.714 801.743,2.369 C801.501,2.311 801.384,2.256 801.317,2.205 C801.839,2.533 801.928,2.867 801.823,3.104 C800.267,3.118 798.939,3.521 798.35,3.093 C799.308,3.106 799.383,2.932 799.827,2.799 L798.201,2.986 C796.729,2.372 800.424,2.771 800.416,2.316 C797.244,2.518 793.552,3.032 791.107,2.86 C790.594,2.258 796.803,2.651 793.543,2.119 L797.317,2.345 C794.422,1.399 799.607,2.41 796.945,1.397 C791.986,1.227 791.408,1.709 786.459,1.537 C785.356,1.874 786.832,2.031 785.73,2.369 C778.707,2.978 780.175,0.859 775.016,1.667 C773.683,2.068 773.174,2.831 769.487,2.432 L770.73,1.749 C765.936,1.686 768.01,2.73 762.965,2.278 C763.861,2.007 766.74,2.046 766.016,1.966 C762.745,1.432 763.712,2.355 761.215,2.357 L760.689,1.754 C755.583,1.852 749.958,2.294 744.292,2.408 C744.604,2.229 745.571,2.04 744.249,1.856 C737.111,2.165 729.012,1.796 722.117,1.444 L719.497,1.966 C718.878,1.961 718.359,1.733 719.026,1.631 C716.333,1.436 718.886,1.962 717.598,2.167 C716.075,2.203 715.577,1.869 716.543,1.711 C711.811,2.157 703.065,2.673 698.073,2.122 L699.049,1.966 C695.159,1.758 694.672,3.037 691.067,2.555 L691.757,2.462 C683.319,2.243 674.017,2.728 667.569,1.948 C666.352,2.699 659.224,1.622 658.687,2.667 C653.867,2.153 655.241,1.966 648.461,1.624 C646.653,1.577 645.758,2.278 643.529,2.39 L643.463,1.843 L640.431,2.42 L638.806,1.769 L636.714,1.91 C637.548,1.942 638.493,2.156 638.361,2.313 C635.078,2.563 630.368,1.938 630.279,1.658 L622.519,2.128 C622.685,1.909 623.995,1.833 625.014,1.69 C620.878,2.251 624.253,1.113 620.47,1.629 C620.971,1.754 620.198,1.956 620.11,2.066 C618.211,1.737 613.909,1.738 610.723,1.881 L611.329,1.503 C605.572,1.412 599.199,1.694 592.734,1.692 C595.055,1.866 594.523,2.52 592.642,2.585 L591.877,2.008 C590.655,2.366 593.855,2.224 591.35,2.664 C588.933,2.599 589.72,2.008 591.104,1.818 L588.168,2.022 C588,1.851 588.678,1.758 588.854,1.538 C587.659,1.899 583.788,0.963 582.055,1.588 L581.888,1.417 C575.432,1.417 572.505,1.618 567.242,1.651 C567.144,2.151 565.087,2.043 563.523,2.446 C559.664,2.29 555.367,1.902 550.708,1.95 C547.435,2.199 549.75,2.373 548.291,2.67 C548.036,2.215 543.386,2.263 545.795,1.934 C540.204,2.013 538.658,2.032 531.591,2.408 C532.364,2.592 533.227,2.673 532.783,2.827 C531.504,2.903 529.86,2.64 530.045,2.421 L530.379,2.374 C522.455,3.063 512.043,1.066 505.738,2.018 L506.093,1.971 L499.544,2.471 C496.521,2.396 501.347,2.127 499.113,1.849 C492.055,2.613 487.942,1.749 482.124,2.259 C477.597,0.922 466.137,2.368 460.041,1.518 L460.4,1.83 C458.827,2.142 458.501,1.649 457.337,1.579 C457.499,1.825 459.05,1.862 458.07,2.035 C444.748,2.427 430.572,1.597 416.918,1.325 C411.923,1.245 414.105,2.962 407.797,2.213 L409.578,1.626 C399.512,2.336 388.972,1.62 379.117,2.225 C379.702,2.089 379.717,1.914 380.679,1.914 C378.596,1.49 372.975,1.902 372.942,2.248 C371.408,2.208 372.584,1.934 371.632,1.758 C369.545,1.509 366.396,2.306 365.279,1.883 C365.086,1.814 365.86,1.745 366.246,1.71 C364.886,1.918 359.895,1.664 361.205,2.153 C357.503,1.922 354.128,2.378 351.17,2.09 C349.251,2.641 344.833,1.831 344.229,2.608 C344.486,1.805 337.731,1.967 335.391,2.345 C336.173,2.104 333.352,2.097 334.27,1.76 C331.596,1.774 329.148,1.925 329.616,2.337 C324.686,1.381 319.735,3.121 316.945,1.892 C309.01,2.329 301.675,2.626 294.538,2.82 C294.782,2.02 302.427,2.735 302.113,1.896 C295.35,2.23 291.447,2.921 284.727,2.734 C282.992,2.626 285.714,2.385 286.298,2.249 C279.539,2.582 273.222,2.187 267.203,2.628 C267.223,2.553 267.864,2.473 268.477,2.411 C267.293,2.437 265.724,2.293 265.858,2.661 L267.009,2.559 C268.914,3.086 262.316,3.665 262.105,3.945 C264.106,2.901 256.157,3.689 259.338,2.369 C258.554,2.438 257.578,2.611 257.763,2.855 C256.6,2.784 256.231,2.642 257.403,2.365 C253.16,2.568 254.672,2.952 250.824,2.947 C250.833,2.771 251.61,2.702 252.001,2.495 C250.063,2.839 248.101,3.185 244.851,3.038 C245.039,2.933 244.662,2.794 245.638,2.797 C240.05,2.855 236.125,3.719 229.986,3.394 C231.784,2.626 227.899,3.144 227.567,2.481 L224.278,2.682 L225.592,3 C222.702,2.992 220.155,3.477 217.675,3.262 L219.817,2.987 L214.408,3.117 L217.472,3.366 C214.556,3.71 217.796,4.204 213.952,4.023 C214.727,3.954 211.069,4.016 209.546,3.627 C209.546,3.627 209.562,3.627 209.562,3.625 C208.129,3.838 206.672,4.062 204.529,3.898 C203.971,3.687 204.963,3.166 204.598,3.024 C203.202,3.58 197.843,3.183 196.065,3.774 C196.663,3.635 196.689,3.288 196.492,3.216 L195.309,3.666 C193.971,3.525 193.774,3.455 193.989,3.178 C189.963,3.098 195.281,4.016 190.497,3.659 C190.874,3.621 190.695,3.554 191.475,3.484 C186.676,3.3 182.214,3.779 177.799,3.561 C176.489,2.895 181.651,3.394 180.156,2.834 C173.797,2.959 167.007,3.643 160.85,3.493 L161.997,3.566 C161.155,4.508 157.415,3.105 154.306,3.551 C155.067,3.481 155.298,3.03 155.095,3.133 C150.883,2.986 146.486,3.374 140.114,3.675 L140.896,3.432 C138.418,3.219 134.357,3.313 131.681,3.206 C130.89,3.446 129.354,3.409 130.29,3.76 C122.005,2.39 114.53,4.511 107.187,3.37 C108.06,3.367 109.27,3.158 108.578,3.157 L102.327,3.386 C102.83,3.796 103.156,3.633 104.47,3.95 C103.681,4.195 101.921,4.385 100.37,4.387 C103.178,4.112 100.334,3.73 99.119,3.5 C99.326,3.626 98.911,3.765 99.016,3.893 C95.744,3.165 98.484,4.717 94.019,4.229 L94.249,4.014 C92.583,4.124 91.054,4.413 89.248,4.352 C88.501,3.878 91.02,4.129 91.133,3.739 C88.603,3.768 86.165,4.641 83.871,4.171 C84.941,4.038 86.481,4.033 87.551,3.901 C85.055,3.346 84.767,3.488 82.917,3.403 L83.102,3.416 L78.818,3.169 L79.911,3.319 C76.765,4.559 73.476,3.55 69.233,4.364 C73.359,3.593 69.903,3.921 70.216,3.383 C69.133,3.236 67.476,3.069 67.945,2.917 C65.938,3.353 64.578,2.579 61.749,3.216 C61.614,3.042 59.593,3.2 60.039,2.765 C57.424,2.905 60.659,3.067 60.443,3.285 C56.415,3.878 50.957,2.574 45.165,3.39 C40.162,3.728 39.248,4.312 34.614,4.607 C33.038,4.333 35.882,3.976 35.882,3.976 C33.353,3.723 31.454,3.772 29.079,3.973 C29.556,3.822 29.055,3.695 28.328,3.5 C26.422,3.548 27.063,4.132 24.537,3.878 C24.966,3.685 25.515,3.375 26.431,3.183 C24.181,3.342 21.964,3.668 19.632,3.829 C19.01,3.526 21.032,3.369 21.854,3.17 C19.237,3.308 15.068,3.449 14.264,3.927 L15.952,4.097 C14.987,4.12 15.446,3.687 16.154,3.6 C18.404,3.224 19.398,3.762 19.529,3.934 L17.873,4.048 C19.587,5.062 24.542,3.879 27.886,3.936 L26.499,4.676 L29.925,4.059 C30.656,4.251 31.157,4.663 29.505,4.774 C31.914,5.137 31.63,4.509 33.696,4.915 C33.916,4.977 33.816,5.015 33.606,5.043 L35.942,4.819 C35.487,4.975 36.342,5.34 34.898,5.235 C39.108,5.657 41.67,4.675 43.258,5.235 L42.907,5.281 C48.735,5.026 43.469,4.738 47.835,4.098 L50.791,5.431 L51.357,4.889 C51.961,4.908 53.148,4.948 52.937,5.163 C55.17,4.792 52.551,4.928 53.842,4.577 C56.745,5.068 61.825,4.339 62.487,5.202 C63.521,4.788 59.718,4.889 62.801,4.598 C63.697,5.525 66.369,4.436 69.021,4.86 C68.214,5.339 65.707,5.089 68.357,5.511 C69.952,4.701 73.516,5.687 75.742,5.53 C75.841,4.884 80.594,5.257 84.339,5.039 C84.099,5.256 91.381,5.388 94.873,5.614 L94.775,5.722 C95.436,5.074 99.032,5.194 101.648,5.055 C101.546,5.445 101.08,5.599 99.661,5.775 L102.124,5.769 C102.7,5.56 103.465,5.45 105.062,5.373 L104.445,5.858 C107.725,5.83 111.029,5.281 115.251,5.602 C115.483,5.148 111.884,4.338 116.334,4.033 C116.501,4.278 116.673,4.698 115.502,4.8 C115.88,4.768 116.862,4.596 117.635,4.698 L115.854,5.114 C117.78,5.294 116.858,4.765 118.387,4.804 C118.365,5.154 119.525,5.052 119.31,5.33 C118.919,5.364 117.97,5.186 117.383,5.324 C119.116,5.386 121.209,5.59 121.903,5.855 C121.75,5.656 121.894,5.383 123.162,5.336 C126.434,5.309 124.287,5.755 126.194,5.935 C126.987,5.691 129.079,5.943 129.125,5.418 C130.083,5.42 130.259,5.662 130.632,5.806 C132.324,5.573 138.552,5.732 136.632,5.178 L136.198,5.141 C136.28,5.13 136.374,5.128 136.473,5.117 C136.46,5.117 136.473,5.117 136.46,5.117 L136.473,5.117 C142.013,4.593 148.007,5.403 153.52,5.179 L153.511,5.353 C156.801,5.15 160.828,5.228 163.169,4.849 C164.14,4.847 165.471,5.164 165.059,5.375 C167.57,5.241 167.854,5.045 171.483,5.329 C168.961,5.639 172.362,5.6 168.893,5.555 C172.169,5.703 172.912,5.985 176.408,5.501 C175.223,5.951 178.873,6.063 180.427,5.928 L178.131,5.611 C179.878,5.544 181.407,5.582 182.961,5.62 L182.128,6.212 C188.823,6.923 194.165,4.979 199.273,6.177 C201.038,5.763 195.637,5.89 197.212,5.406 C200.286,5.482 203.503,6.328 204.465,6.328 C208.682,6.65 208.385,5.462 212.8,5.682 C212.233,5.473 211.692,4.912 214.982,4.71 C218.06,4.785 218.777,5.589 216.836,5.76 C216.102,5.778 215.744,5.71 215.775,5.639 C214.779,5.716 213.479,5.809 214.698,6.036 L215.095,5.825 C216.624,6.038 220.858,6.013 219.864,6.357 C222.191,6.154 220.859,6.011 219.136,5.902 C223.082,6.205 225.3,5.908 229.365,6.109 C228.716,5.994 228.118,5.748 228.761,5.749 C234.729,6.005 231.38,5.349 235.417,5.252 C237.712,5.568 234.607,6.018 238.667,5.745 C241.152,5.96 239.198,6.305 238.216,6.476 C241.912,6.066 245.137,6.738 247.254,6.808 L245.31,6.98 C246.466,6.877 247.424,6.88 248.401,6.878 L247.276,6.458 C248.422,6.53 249.392,6.531 249.368,6.707 C250.552,6.433 248.46,6.008 250.794,5.629 C252.326,5.843 255.443,5.397 255.98,5.953 C251.172,5.768 256.514,6.515 252.451,6.608 C253.234,6.54 254.189,6.542 255.341,6.615 C255.517,6.678 255.178,6.731 254.869,6.764 C259.468,7.258 256.965,6.127 261.727,6.137 C261.129,6.452 262.844,6.735 263.621,6.665 C261.696,6.66 262.694,6.141 264.454,5.896 C267.511,6.138 267.771,5.711 269.367,5.739 L267.541,5.627 C268.159,5.312 269.683,5.351 271.809,5.25 C271.997,5.494 269.882,5.421 270.642,5.527 C272.999,4.969 275.989,6.093 279.277,5.718 C280.806,5.929 279.435,6.31 280.776,6.452 C284.464,6.041 284.781,6.881 288.655,6.54 C287.53,6.117 287.341,6.222 290.068,5.806 L283.696,6.115 L287.783,5.495 C285.865,5.491 283.729,5.766 282.575,5.694 C284.52,5.348 284.322,5.452 283.394,5.102 C286.04,5.735 288.615,4.727 291.664,5.154 L291.579,6.201 C296.165,6.667 299.712,5.656 305.662,5.915 L303.748,5.734 C304.545,5.317 307.42,5.672 309.351,5.503 C309.176,5.854 310.382,5.981 311.206,6.196 C311.102,5.935 315.557,6.217 316.088,5.515 L318.747,5.976 C323.553,6.161 324.212,4.973 328.837,5.088 C327.45,5.47 329.546,5.714 326.462,5.99 C328,5.992 329.391,6.053 329.409,5.811 C330.314,6.03 333.679,5.335 335.102,5.665 C335.754,5.513 335.956,5.144 337.688,5.174 C337.874,5.249 337.68,5.35 337.68,5.35 C337.689,5.178 340.39,5.114 338.874,4.727 C343.636,5.815 352.139,4.635 356.28,5.569 C359.645,5.449 363.696,5.333 366.751,5.306 C366.557,5.409 366.742,5.479 366.166,5.442 C370.383,5.764 368.739,4.435 373.542,4.795 C375.991,5.359 371,5.105 372.526,5.316 C373.209,6.467 378.307,5.154 381.544,5.824 L380.766,5.895 C383.232,6.286 386.77,5.453 390.798,5.531 C390.798,5.531 390.604,5.634 390.78,5.705 C393.524,5.117 398.743,4.918 402.61,4.752 C401.413,5.203 400.851,4.99 401.593,5.448 C403.329,5.382 401.079,4.713 404.54,4.58 C405.669,4.827 408.172,5.04 408.51,5.528 L405.239,5.557 C406.926,6.188 409.469,5.533 411.196,5.641 L410.985,5.917 C415.997,5.821 416.052,5.125 421.44,5.171 L420.886,4.961 C423.82,4.269 423.352,5.349 426.289,4.833 L427.185,5.53 C429.13,5.36 433.979,4.848 437.457,4.714 C435.486,5.235 431.419,5.503 428.907,5.815 C430.834,5.819 435.447,5.757 436.442,5.412 C435.666,5.479 434.691,5.651 433.925,5.546 C436.279,4.994 439.392,4.721 443.222,4.729 C442.557,6.086 453.227,5.063 456.026,6.116 C462.803,5.605 469.496,6.318 477.403,6.23 C474.586,5.174 479.715,6.198 479.209,5.115 C481.051,5.045 481.753,5.059 481.921,5.131 L487.506,5.774 C488.842,6.088 485.757,6.014 485.934,6.257 C489.968,6.338 487.629,6.716 490.301,7.002 C489.747,6.611 491.703,6.443 493.997,6.591 L490.759,6.093 C496.374,5.512 495.636,6.999 501.31,6.423 L499.522,6.768 C502.43,6.561 510.276,6.764 513.119,5.889 C513.638,6.016 514.323,6.311 513.04,6.391 C520.01,6.514 528.535,5.45 533.958,5.981 L533.432,6.247 C534.733,6.17 535.681,5.747 537.312,6.015 C537.229,6.123 536.798,6.279 537.405,6.293 C538.082,6.201 540.845,5.825 542.572,5.98 L541.105,6.281 C547.899,6.62 551.516,5.545 557.216,5.358 C557.207,6.136 562.564,6.386 565.228,6.509 L565.135,6.62 C573.05,6.709 578.566,5.961 585.886,5.647 C590.448,6.49 601.303,5.989 608.624,6.459 C607.499,6.317 608.792,5.849 610.092,5.771 C611.816,5.927 614.83,5.225 614.567,5.941 L613.957,5.927 C615.257,6.629 618.777,6.439 621.527,6.456 L621.98,5.518 C629.197,6.874 640.829,4.999 644.776,6.217 C646.506,5.981 648.666,5.983 650.383,5.746 L650.295,6.249 C655.111,6.374 657.519,6.436 663.471,6.311 L662.258,6.669 C665.614,6.699 666.481,5.217 669.579,5.185 L670.518,5.932 C676.372,5.917 682.305,6.571 688.088,5.884 C687.992,5.993 687.82,6.212 686.871,6.242 C689.618,6.26 697.527,6.741 696.525,5.713 C696.605,6.383 702.563,5.772 705.727,5.475 L705.245,5.971 C707.908,5.335 707.986,5.162 711.714,4.984 C712.594,5.049 712.487,5.38 711.318,5.255 C714.264,5.511 713.604,4.784 717.181,5.044 L715.854,5.36 C718.886,5.395 718.641,5.227 720.302,4.858 C722.199,4.657 726.05,4.977 726.503,5.421 C726.902,5.15 728.563,4.782 730.347,4.911 C730.59,5.08 729.935,5.183 729.614,5.236 C734.681,5.567 737.134,4.654 740.624,5.138 C740.703,5.3 740.927,5.38 741.213,5.43 C737.191,5.42 733.952,5.398 734.26,5.361 C734.26,5.817 737.512,5.895 734.933,6.528 C737.535,6.18 741.986,5.428 745.162,5.639 C745.308,5.684 745.457,5.727 745.58,5.797 L745.251,5.85 C745.98,5.895 746.645,5.852 747.255,5.774 C748.271,5.848 748.902,5.903 749.878,5.91 C750.26,6.287 753.605,6.11 755.224,6.127 C755.082,5.629 757.209,5.707 755.214,5.297 C755.478,5.333 754.911,5.358 753.834,5.379 C753.587,5.395 753.297,5.4 753.139,5.431 C753.173,5.416 753.209,5.401 753.254,5.386 C752.191,5.403 750.797,5.414 749.22,5.425 C750.498,5.169 751.829,4.956 753.626,5.231 C754.458,4.91 755.364,4.58 755.877,4.423 C758.106,5.117 762.386,5.488 762.983,5.918 C767.926,5.632 774.637,5.724 777.732,4.784 C779.137,4.661 779.357,5.05 779.884,5.198 C779.075,5.292 778.109,5.279 777.665,5.414 C780.477,5.172 786.002,5.314 786.666,4.659 C790.216,4.951 784.684,5.263 789.552,5.152 L788.899,5.351 C798.491,6.39 804.455,3.668 815.094,5 C814.362,4.919 813.992,4.882 813.843,4.771 C825.958,5.353 838.791,4.192 850.758,5.123 C854.158,5.311 854.52,4.891 856.594,4.57 L857.331,5.105 L860.875,4.485 C865.888,4.027 869.598,5.79 875.952,4.931 L875.126,4.57 C877.407,4.635 882.359,4.351 881.98,4.765 C882.209,4.7 882.728,4.39 883.62,4.577 L883.696,4.856 L889.302,4.372 C893.654,4.569 888.639,5.484 894.99,5.533 C897.345,5.423 901.704,4.712 900.822,4.524 C899.864,4.51 898.378,4.351 898.295,4.07 L900.453,3.921 C900.835,3.097 902.487,2.25 897.179,1.676 L893.491,2.185 L892.292,1.787 L895.398,1.759 C893.635,1.383 892.52,1.718 891.276,1.949 C890.972,1.736 890.445,1.586 889.716,1.509 L886.096,2.3 C885.657,1.978 887.711,1.659 885.277,1.483 C883.587,1.85 886.914,2.206 884.11,2.449 C882.33,2.076 882.848,1.769 880.778,2.092 C880.479,1.88 880.924,1.744 881.741,1.65 C879.899,1.906 876.858,1.761 875.913,2.202 C874.063,1.741 869.678,2.328 869.853,1.545 C869.272,1.733 866.601,2.162 864.913,2.195 C867.998,1.257 858.559,2.145 859.368,1.142 C857.082,1.985 851.088,1.522 847.035,1.995 C847.265,1.928 847.705,1.792 848.063,1.834 C845.778,1.767 845.116,1.512 843.648,1.354 C843.361,2.049 839.801,2.212 837.886,2.643 C835.082,1.975 839.582,1.824 838.686,1.182 C838.835,1.746 833.834,1.749 834.79,2.217 C832.638,1.806 832.945,2.019 831.834,1.444 C831.468,2.313 829.843,1.592 828.068,2.128 C824.964,1.703 827.258,1.315 823.857,1.582 C822.267,1.313 825.286,1.001 825.286,1.001 L825.286,1.001 Z M744.283,2.575 C744.283,2.571 744.283,2.567 744.283,2.566 C744.986,2.553 745.579,2.543 745.953,2.535 C745.606,2.542 745.131,2.552 744.283,2.575 Z M737.484,2.589 C738.31,2.608 739.338,2.61 740.428,2.605 C740.674,2.777 740.419,2.956 739.733,2.947 C740.104,2.832 738.496,2.734 737.484,2.589 Z M751.926,6.031 C750.853,6.104 750.484,6.007 750.343,5.903 C750.845,5.893 751.439,5.877 752.225,5.841 C752.26,5.822 752.318,5.803 752.344,5.779 C752.251,5.876 752.136,5.966 751.926,6.031 Z"/>
    <path d="M753.855 5.377C754.013 5.365 754.095 5.346 754.298 5.34 754.077 5.295 753.863 5.261 753.652 5.229 753.525 5.284 753.384 5.335 753.273 5.384 753.468 5.383 753.67 5.381 753.855 5.377L753.855 5.377zM136.642 5.184L136.785 5.196C136.668 5.175 136.556 5.155 136.484 5.124 136.577 5.146 136.577 5.162 136.642 5.184L136.642 5.184z"/>
    <polygon points="643.446 1.717 643.464 1.844 644.053 1.734"/>
    <path d="M99.119 3.504C99.047 3.462 98.906 3.415 98.623 3.377 98.647 3.409 98.862 3.455 99.119 3.504zM82.918 3.408L80.626 3.231C81.618 3.331 82.338 3.377 82.918 3.408zM70.457 3.171C70.303 3.259 70.264 3.325 70.217 3.384 70.231 3.384 70.235 3.384 70.245 3.387L70.457 3.171zM268.473 2.411C268.645 2.407 268.812 2.4 268.954 2.387 270.083 2.29 269.318 2.328 268.473 2.411zM209.562 3.626C210.181 3.536 210.799 3.447 211.452 3.39 210.404 3.352 209.588 3.343 209.562 3.626zM334.279 1.75C334.27 1.754 334.279 1.755 334.27 1.76 334.409 1.757 334.536 1.76 334.669 1.76L334.279 1.75zM214.192 3.395C213.144 3.298 212.272 3.32 211.452 3.39 212.315 3.422 213.328 3.473 214.192 3.395zM16.478 2.992L15.875 2.972C15.883 3.006 15.846 3.032 15.807 3.053L16.478 2.992zM15.807 3.052L15.141 3.113C15.446 3.112 15.713 3.107 15.807 3.052zM13.742 3.238L15.141 3.113C14.651 3.11 14.056 3.097 13.742 3.238zM32.966 3.208L33.155 3.027C33.052 3.064 32.979 3.125 32.966 3.208zM37.974 3.15C36.783 3.11 34.973 2.768 33.305 2.882L33.151 3.026C33.929 2.757 36.844 3.457 37.974 3.15zM58.918 5.369L54.72 5.226C55.454 5.417 56.42 5.675 54.517 5.723 59.813 6.296 53.415 5.295 58.918 5.369L58.918 5.369zM71.943 5.636C69.688 5.728 71.974 5.915 71.848 6.025 73.283 5.849 73.626 5.804 71.943 5.636zM166.018 5.554L165.798 6.008C167.534 5.94 165.811 5.832 166.018 5.554z"/>
    <polygon points="183.97 3.193 182.273 2.914 181.476 3.33"/>
    <polygon points="194.633 6.415 193.877 6.479 196.776 6.313"/>
    <path d="M352.64 6.115L352.104 5.56C350.932 5.658 350.69 6.286 352.64 6.115zM420.834 5.483C421.581 5.764 423.504 5.942 424.677 5.667 423.144 5.63 421.617 5.413 420.834 5.483z"/>
    <polygon points="625.416 6.215 624.044 6.403 626.633 6.246"/>
  </g>
</svg>
