<svg xmlns="http://www.w3.org/2000/svg" width="1366" height="138" viewBox="0 0 1366 138">
  <path fill="#090018" d="M1343.944,72.697 C1326.869,70.207 1318.687,68.783 1306.592,67.005 C1294.497,65.227 1273.864,62.736 1264.972,61.669 C1256.078,60.602 1229.755,58.468 1224.063,56.689 C1218.373,54.911 1193.827,52.421 1189.202,51.709 C1184.578,50.997 1179.598,50.287 1173.551,48.508 C1167.503,46.729 1158.61,46.019 1152.918,45.307 C1147.226,44.595 1133.709,39.262 1128.373,37.838 C1123.037,36.415 1121.97,37.485 1116.634,36.774 C1111.298,36.063 1111.298,36.069 1107.74,35.002 C1104.183,33.936 1096.002,35.371 1093.155,35.371 C1090.309,35.371 1082.128,33.263 1078.926,32.907 C1075.724,32.551 1074.301,31.891 1072.167,31.18 C1070.032,30.468 1067.897,29.861 1066.475,29.504 C1065.053,29.147 1057.583,29 1057.583,29 C1057.583,29 1053.492,29 1050.513,29 L1050.594,26.356 C1050.626,25.292 1050.607,14.287 1050.607,14.287 C1050.671,12.16 1051.059,11.107 1051.059,11.107 C1053.229,9.753 1057.636,4.918 1057.636,4.918 C1059.475,2.844 1059.518,1.425 1059.518,1.425 C1059.539,0.716 1059.185,0.704913517 1059.185,0.704913517 C1058.831,0.694 1058.088,1.736 1058.088,1.736 C1057.39,1.36 1057.335,3.132 1057.335,3.132 C1056.959,3.831 1055.132,5.55 1055.132,5.55 C1052.197,8.655 1049.35,8.924 1049.35,8.924 C1048.996,8.912 1049.361,8.569 1049.361,8.569 C1050.114,7.173 1049.448,5.732 1049.448,5.732 C1048.438,3.927 1046.267,5.281 1046.267,5.281 C1045.181,5.958 1046.159,8.826 1046.159,8.826 C1045.438,9.159 1044.741,8.784 1044.741,8.784 L1041.613,6.558 C1038.831,4.699 1037.466,2.882 1037.466,2.882 C1037.154,1.453 1036.812,1.088 1036.812,1.088 C1036.467,0.722 1035.737,1.409 1035.737,1.409 C1035.371,1.754 1035.693,2.828 1035.693,2.828 C1036.027,3.548 1037.735,5.729 1037.735,5.729 C1039.82,7.212 1043.601,11.233 1043.601,11.233 C1044.633,12.329 1044.395,20.13 1044.395,20.13 L1043.811,29.11 C1041.691,29.154 1039.667,29.157 1038.73,28.969 C1036.952,28.614 1034.106,28.94 1031.972,27.872 C1029.837,26.805 1029.125,27.872 1026.992,27.872 C1024.857,27.872 1022.012,28.939 1020.233,30.006 C1018.455,31.073 1015.608,34.275 1011.339,34.63 C1007.07,34.985 999.956,37.121 997.821,37.832 C995.686,38.543 978.612,41.034 974.698,41.034 C970.785,41.034 964.383,44.948 964.383,44.948 C964.383,44.948 939.482,50.995 938.059,50.995 C936.636,50.995 906.755,56.687 904.265,57.042 C901.775,57.397 874.383,63.445 873.316,63.09 C872.25,62.735 862.644,63.801 862.644,63.801 C862.644,63.801 850.55,59.532 849.483,59.532 C848.416,59.532 837.032,58.821 834.898,58.465 C832.763,58.11 828.139,57.042 826.36,55.975 C824.582,54.908 815.333,52.062 813.554,51.35 C811.775,50.639 798.969,47.793 795.411,46.725 C791.853,45.657 777.625,39.966 775.49,38.899 C773.356,37.832 768.019,37.477 766.953,37.121 C765.886,36.765 763.395,38.187 761.261,38.187 C759.127,38.187 749.523,38.543 747.743,38.187 C745.965,37.831 727.823,39.254 722.843,37.121 C717.863,34.986 721.42,35.342 717.152,35.342 C712.882,35.342 712.527,36.053 710.037,34.63 C707.547,33.207 706.836,33.564 705.057,33.208 C703.279,32.853 700.078,33.919 699.01,35.342 C697.943,36.765 696.164,35.342 696.164,35.342 C696.164,35.342 693.318,36.409 692.251,38.167 C691.184,39.924 688.693,38.544 686.915,38.188 C685.137,37.832 679.089,42.101 676.599,43.168 C674.11,44.235 662.014,48.149 655.967,49.625 C649.92,51.101 633.2,55.263 629.643,55.975 C626.086,56.687 616.837,57.398 612.923,57.042 C609.01,56.687 598.694,61.667 594.425,62.378 C590.156,63.089 574.504,67.714 566.678,69.654 C558.852,71.592 526.481,76.252 515.097,76.964 C503.713,77.676 466.362,82.656 458.891,83.011 C451.421,83.367 428.655,85.502 423.674,85.146 C418.694,84.79 414.781,87.636 414.781,87.636 L409.445,87.991 C409.445,87.991 396.994,89.058 395.927,89.414 C394.86,89.769 382.053,89.769 379.919,89.414 C377.784,89.059 363.555,86.568 356.44,85.502 C349.326,84.434 333.673,82.3 330.472,81.943 C327.27,81.588 289.208,77.319 287.429,76.964 C285.65,76.609 251.857,72.34 241.896,70.561 C231.936,68.783 179.644,63.802 176.086,61.667 C172.528,59.533 172.528,60.6 169.683,59.889 C166.838,59.178 163.992,58.822 160.789,57.043 C157.588,55.265 156.52,55.265 154.386,54.36 C152.252,53.457 150.117,52.774 147.628,51.993 C145.138,51.212 141.581,52.063 139.802,51.993 C138.024,51.924 131.62,51.351 128.419,51.993 C125.217,52.635 126.64,51.35 125.573,51.993 C124.506,52.634 121.304,50.995 119.17,49.859 C117.035,48.723 115.612,52.109 115.612,52.109 C115.612,52.109 110.278,53.483 109.21,54.195 C108.143,54.906 104.942,53.125 103.164,52.023 C101.385,50.921 100.677,51.694 98.543,52.016 C96.408,52.337 93.212,52.394 91.79,52.003 C90.367,51.613 88.635,54.144 86.5,53.754 C84.366,53.362 83.312,52.18 80.822,51.467 C78.331,50.756 75.859,53.99 75.859,53.99 C75.859,53.99 20.81,52.36 0.178,52.004 L0,138 L1366,138 L1366,75.543 C1366,75.543 1361.02,75.187 1343.944,72.697 Z M1046.414,23.744 C1046.446,22.68 1047.166,22.347 1047.166,22.347 C1047.887,22.014 1048.197,23.443 1048.197,23.443 C1048.415,24.168 1048.401,27.143 1048.37,29.005 C1047.66,29.014 1046.837,29.036 1045.971,29.059 L1046.414,23.744 Z"/>
</svg>
