<svg height="141" viewBox="0 0 1370 141" width="1370" xmlns="http://www.w3.org/2000/svg"><path d="m1347.87941 73.9347959c-17.125-2.5571928-25.33095-4.0196195-37.46137-5.8455989s-32.82384-4.3841991-41.74188-5.4799922c-8.92004-1.095793-35.32012-3.2873791-41.02879-5.1143855-5.70666-1.8259794-30.32454-4.3831721-34.96308-5.1143855-4.63754-.7312133-9.63212-1.4603727-15.69683-3.2873791-6.06571-1.8270064-14.98475-2.5561657-20.69342-3.2873791-5.70867-.7312133-19.26525-6.2081246-24.61687-7.6705513-5.35163-1.4613997-6.42175-.3625257-11.77338-1.092712-5.35162-.7301864-5.35162-.7240245-8.92004-1.8198175-3.56742-1.0947661-11.77237.3789574-14.62771.3789574-2.85433 0-11.05929-2.1648844-14.27067-2.5304911-3.21137-.3656067-4.63854-1.0434168-6.77879-1.7736032-2.14125-.7312133-4.2825-1.3545932-5.70867-1.7212269-1.42616-.3666337-8.91803-.5176005-8.91803-.5176005s-4.10298 0-7.09071 0l.08124-2.7153484c.03209-1.0927121.01304-12.3946825.01304-12.3946825.06419-2.1843971.45332-3.2658124.45332-3.2658124 2.17636-1.39053773 6.59626-6.35601041 6.59626-6.35601041 1.84439-2.12996697 1.88751-3.58725874 1.88751-3.58725874.02106-.7281324-.33397-.73951805-.33397-.73951805-.35504-.01120802-1.10022 1.05891039-1.10022 1.05891039-.70004-.38614637-.7552 1.43367112-.7552 1.43367112-.3771.71786254-2.20945 2.48324983-2.20945 2.48324983-2.9436 3.18878855-5.79893 3.46504753-5.79893 3.46504753-.35504-.01232382.01103-.36457969.01103-.36457969.7552-1.43367112.08725-2.91355656.08725-2.91355656-1.01295-1.853708-3.19031-.46317026-3.19031-.46317026-1.08918.69526888-.10832 3.64066197-.10832 3.64066197-.72311.34198602-1.42215-.04313337-1.42215-.04313337l-3.13716-2.2860687c-2.79015-1.90916519-4.15914-3.77519701-4.15914-3.77519701-.31292-1.46756162-.65592-1.84241116-.65592-1.84241116-.34601-.37587653-1.07815.3296622-1.07815.3296622-.36707.35430983-.04412 1.45729177-.04412 1.45729177.33497.73942923 2.04798 2.9792836 2.04798 2.9792836 2.0911 1.52301882 5.88317 5.65252564 5.88317 5.65252564 1.03502 1.1255756.79633 9.1370859.79633 9.1370859l-.58571 9.2223257c-2.12621.0451873-4.15614.0482683-5.09588-.1448049-1.78321-.3645797-4.63754-.0297826-6.77779-1.1266026-2.14125-1.095793-2.85534 0-4.99458 0-2.14125 0-4.99459 1.0957931-6.77879 2.1915861-1.78321 1.095793-4.63855 4.3841991-8.92005 4.7487788s-11.41633 2.5582198-13.55758 3.2884061c-2.141255.7301864-19.265252 3.2884061-23.190713 3.2884061-3.924458 0-10.345205 4.0196195-10.345205 4.0196195s-24.973917 6.2101785-26.401084 6.2101785c-1.427166 0-31.395666 5.8455989-33.892957 6.2101786s-29.969502 6.5757852-31.039627 6.2112055c-1.069121-.3645797-10.70325.7301864-10.70325.7301864s-12.129414-4.3841992-13.199539-4.3841992c-1.070124 0-12.48746-.7301863-14.627709-1.095793-2.141251-.3645797-6.778792-1.4613997-8.563001-2.5571928-1.783206-1.095793-11.05929-4.0185924-12.843499-4.7498058-1.78421-.7301864-14.627709-3.6529858-18.196128-4.7498058-3.568418-1.09682-17.838082-6.9413919-19.979333-8.0371849-2.140249-1.0957931-7.492877-1.4603728-8.561999-1.8259794-1.070124-.3656067-3.568419 1.094766-5.708668 1.094766s-11.772372.3656067-13.557584 0c-1.783206-.3656067-19.978331 1.0957931-24.972913-1.094766-4.994583-2.1926131-1.427167-1.8270064-5.707665-1.8270064-4.282504 0-4.638543.7301863-7.135835-.7312134-2.497291-1.4613997-3.210373-1.094766-4.994582-1.4603727-1.783207-.3645797-4.99358.7301864-6.064708 2.1915861-1.070124 1.4613997-2.854333 0-2.854333 0s-2.854334 1.095793-3.924459 2.9012327c-1.070124 1.8044127-3.568418.3871734-5.351625.0215667-1.783206-.3656067-7.848916 4.0185925-10.346208 5.1143855-2.496288 1.095793-14.627708 5.1154125-20.692416 6.6312424-6.064707 1.5158299-22.833667 5.7901417-26.401083 6.521355-3.567416.7312134-12.843499 1.4613997-16.768961 1.0957931-3.924458-.3645797-14.270666 4.7498058-18.552166 5.4799921-4.281501.7301864-19.979334 5.4799922-27.828251 7.4723432-7.848916 1.990297-40.314707 6.7760473-51.732042 7.5072606-11.417336.7312134-48.877709 5.8455989-56.370586 6.2101786-7.491874.3656067-30.324539 2.5582197-35.320124 2.1926131-4.994583-.3656067-8.919041 2.5571927-8.919041 2.5571927l-5.351626.3645797s-12.487459 1.095793-13.557584 1.4613997c-1.070124.3645797-13.914626.3645797-16.054875 0-2.141252-.3645797-16.411918-2.9227994-23.547753-4.0175655-7.134831-1.09682-22.833667-3.2884061-26.044041-3.6550397-3.211376-.3645797-41.384831-4.7487789-43.169041-5.1133586-1.784209-.3645796-35.676164-4.7487788-45.666332-6.5757852-9.989166-1.8259794-62.43429-6.9413919-66.002709-9.1340049-3.568419-2.1915861-3.568419-1.0957931-6.421749-1.8259794-2.853331-.7301864-5.707665-1.0957931-8.920044-2.9227995-3.210374-1.8259794-4.281501-1.8259794-6.42175-2.7554008-2.140249-.9273675-4.281501-1.6287983-6.777789-2.4308736-2.497292-.8020753-6.064707.0718889-7.848917 0-1.783206-.070862-8.205959-.6593244-11.416332 0-3.211376.6593244-1.784209-.6603514-2.854334 0-1.070124.6582974-4.281501-1.0249311-6.42175-2.1915861-2.141251-1.166655-3.568418 2.3107164-3.568418 2.3107164s-5.34962 1.4110774-6.420747 2.1422908c-1.070124.7301863-4.280498-1.098874-6.063704-2.2306116-1.78421-1.1317375-2.494283-.337878-4.6345317-.0071889-2.1412518.3296622-5.3466105.3882004-6.7727745-.0133508-1.4271669-.4005241-3.1642387 2.198775-5.3054905 1.7982508-2.1402489-.4025781-3.1973353-1.6164744-5.6946267-2.3487147-2.4982942-.7301864-4.9775329 2.5910832-4.9775329 2.5910832s-55.2101977-1.6739856-75.90261347-2.0395923l-.17852123 88.3166056h1370v-64.1424047s-4.99458-.3656067-22.12059-2.9227994zm-298.51277-50.4366119c.02649-1.1013984.62238-1.446103.62238-1.446103.59673-.3447045.8533 1.1345232.8533 1.1345232.18042.7504829.16883 3.8300506.14318 5.7574978-.58762.0093163-1.26877.0320896-1.9855.055898z" fill="#090018"/></svg>