<?xml version="1.0" encoding="utf-8"?>
<!-- Generator: Adobe Illustrator 16.0.0, SVG Export Plug-In . SVG Version: 6.00 Build 0)  -->
<!DOCTYPE svg PUBLIC "-//W3C//DTD SVG 1.1//EN" "http://www.w3.org/Graphics/SVG/1.1/DTD/svg11.dtd">
<svg version="1.1" id="EXPAND" xmlns="http://www.w3.org/2000/svg" xmlns:xlink="http://www.w3.org/1999/xlink" x="0px" y="0px"
	 width="200px" height="200px" viewBox="0 0 200 200" style="enable-background:new 0 0 200 200;" xml:space="preserve">
<g>
	<path d="M119.75,54.654c-0.611,0-1.87,1.77-1.87,1.77c-0.114-0.062-0.22-0.089-0.315-0.089c-0.898,0-0.975,2.485-0.975,2.485
		c-0.646,1.198-3.779,4.146-3.779,4.146c-5.031,5.325-9.916,5.785-9.916,5.785c-0.607-0.019,0.02-0.608,0.02-0.608
		c1.29-2.395,0.146-4.865,0.146-4.865c-0.691-1.239-1.705-1.612-2.668-1.612c-1.447,0-2.787,0.836-2.787,0.836
		c-1.861,1.161-0.185,6.082-0.185,6.082c-0.379,0.176-0.754,0.237-1.092,0.237c-0.765,0-1.341-0.311-1.341-0.311l-5.363-3.816
		c-4.772-3.189-7.112-6.304-7.112-6.304c-0.534-2.452-1.124-3.078-1.124-3.078c-0.123-0.131-0.277-0.184-0.441-0.184
		c-0.619,0-1.401,0.736-1.401,0.736c-0.627,0.59-0.074,2.434-0.074,2.434c0.571,1.234,3.501,4.976,3.501,4.976
		c3.574,2.544,10.061,9.438,10.061,9.438c1.77,1.881,1.361,15.261,1.361,15.261l-1.047,16.115
		c-36.558,1.752-68.237,17.836-86.21,41.26c21.801-19.686,61.208-31.486,98.776-31.486c37.566,0,65.148,11.801,86.949,31.486
		c-18.266-23.806-50.688-40.029-88-41.334l0.164-5.369c0.057-1.824,0.021-20.696,0.021-20.696c0.111-3.65,0.775-5.455,0.775-5.455
		c3.723-2.322,11.279-10.614,11.279-10.614c3.152-3.558,3.228-5.99,3.228-5.99c0.036-1.217-0.571-1.235-0.571-1.235
		C119.757,54.654,119.754,54.654,119.75,54.654 M97.043,103.96l0.815-9.795c0.055-1.824,1.291-2.395,1.291-2.395
		c0.128-0.059,0.25-0.086,0.363-0.086c0.977,0,1.405,1.966,1.405,1.966c0.401,1.345,0.345,7.209,0.283,10.284
		c-0.4-0.002-0.8-0.008-1.2-0.008C99.011,103.926,98.026,103.939,97.043,103.96"/>
</g>
</svg>
