<svg xmlns="http://www.w3.org/2000/svg" width="1356" height="30" viewBox="0 0 1356 30">
  <g fill="#80B048">
    <path d="M.823 12.445C.115 13.197.524 14.894 2.486 14.554L3.872 11.664.823 12.445zM14.059 17.738C16.367 16.333 19.023 13.869 17.517 11.228 15.24 14.004 14.681 12.848 12.229 16.153 10.262 16.5 8.793 15.243 9.123 14.178 8.43 14.921 6.065 13.555 5.014 15.366 7.579 17.593 10.82 17.672 14.198 15.815 14.926 16.451 14.225 17.201 14.059 17.738zM206.159 21.57L204.92 21.23C205.256 21.418 205.684 21.523 206.159 21.57zM325.175 22.741C324.272 22.813 323.892 23.104 323.847 23.369 324.689 23.175 325.379 22.995 325.175 22.741zM345.506 25.853C345.069 25.761 344.705 25.722 344.306 25.66 344.767 25.925 345.227 26.071 345.506 25.853zM206.159 21.57L209.34 22.462C209.561 21.525 207.711 21.775 206.159 21.57L206.159 21.57zM40.523 10.697C39.857 10.833 39.305 11.106 38.8 11.458 39.345 11.334 39.873 11.227 40.422 11.148 40.45 10.989 40.475 10.854 40.523 10.697zM153.7 24.086L152.737 24.094C152.451 24.425 152.188 24.826 151.937 25.269L153.7 24.086zM113.439 24.672C114.352 24.776 114.658 22.318 115.006 21.25 114.495 22.268 113.823 22.743 113.025 22.937 113.013 23.405 113.134 23.958 113.439 24.672zM49.583 20.585L48.45 20.927C48.745 20.821 49.239 20.722 49.583 20.585zM182.524 24.52C182.592 24.887 182.736 25.199 182.891 25.388 182.89 25.082 182.744 24.797 182.524 24.52zM1308.618 2.256C1308.59 2.431 1308.632 2.543 1308.624 2.695 1308.851 2.443 1308.922 2.27 1308.618 2.256zM1355.325 14.218L1354.685 14.353C1354.617 14.815 1354.545 15.275 1354.547 15.728L1355.325 14.218zM382.703 28.862C382.629 28.837 382.604 28.837 382.538 28.817 381.562 29.09 382.114 29.039 382.703 28.862zM724.08 25.884C720.206 23.703 730.362 23.052 724.538 20.643 725.077 21.596 719.258 24.479 724.08 25.884zM41.57 11.011C42.112 10.981 42.664 10.958 43.217 10.981 42.466 10.903 41.959 10.911 41.57 11.011zM724.538 20.643C724.538 20.634 724.538 20.623 724.538 20.623L723.932 20.394C724.184 20.493 724.324 20.56 724.538 20.643zM468.384 27.094C468.205 26.66 467.865 26.33 467.504 26.029 467.535 26.271 467.736 26.578 468.384 27.094zM404.538 23.826L406.12 24.15C405.493 23.93 404.985 23.854 404.538 23.826zM501.515 23.53C502.371 23.703 502.667 24.044 503.838 23.708 503.727 23.595 503.623 23.507 503.483 23.419 503.054 23.746 502.492 23.908 501.515 23.53L501.515 23.53zM536.011 23.394C535.828 23.206 535.584 23.066 535.374 22.9 535.03 22.951 534.633 22.99 534.279 23.038L536.011 23.394zM1203.785 3.796C1204.538 4.482 1205.014 5.24 1205.387 5.991 1204.845 4.25 1209.909 3.61 1203.785 3.796zM40.546 12.067C40.747 11.45 41.042 11.147 41.57 11.011 41.171 11.039 40.793 11.09 40.422 11.148 40.324 11.51 40.303 11.856 40.546 12.067zM502.855 4.208L508.332 4.554C506.803 4.319 504.811 4.202 502.855 4.208zM956.304 4.992L957.561 4.698C957.072 4.644 956.626 4.716 956.304 4.992zM524.599 4.132C525.578 4.994 526.62 5.491 527.689 5.817 527.918 5.622 528.172 5.463 528.324 5.184L524.599 4.132zM1205.399 6.016C1205.386 6.006 1205.386 5.991 1205.386 5.991 1205.386 5.991 1205.387 6.006 1205.399 6.016z"/>
    <path d="M1241.473,0.078 C1236.25,0.027 1239.033,3.235 1237.932,5.085 C1231.703,6.02 1235.037,2.731 1232.914,1.085 C1229.025,1.954 1226.048,4.914 1223.143,4.799 C1222.922,4.272 1222.365,4.081 1223.018,3.417 C1218.911,5.988 1210.804,3.58 1206.021,6.809 C1205.661,6.529 1205.485,6.258 1205.399,6.017 C1206.175,7.622 1206.3,9.264 1206.145,10.427 C1203.808,10.491 1201.803,12.475 1200.919,10.375 C1202.356,10.433 1202.474,9.583 1203.137,8.922 L1200.689,9.845 C1198.474,6.829 1204.033,8.787 1204.027,6.554 C1199.246,7.55 1193.677,10.07 1190.011,9.233 C1189.24,6.276 1198.579,8.205 1193.677,5.592 L1199.356,6.706 C1195.002,2.056 1202.805,7.018 1198.8,2.043 C1191.336,1.21 1190.462,3.576 1183.009,2.742 C1181.345,4.388 1183.575,5.168 1181.902,6.816 C1171.329,9.808 1173.554,-0.586 1165.784,3.379 C1163.776,5.357 1163.012,9.098 1157.465,7.138 L1159.335,3.788 C1152.114,3.479 1155.226,8.61 1147.652,6.386 C1148.993,5.066 1153.332,5.26 1152.238,4.864 C1147.319,2.242 1148.77,6.772 1145.003,6.785 L1144.217,3.827 C1136.528,4.321 1128.056,6.488 1119.531,7.056 C1120.004,6.173 1121.462,5.243 1119.459,4.343 C1108.723,5.862 1096.525,4.063 1086.154,2.34 L1082.197,4.91 C1081.275,4.884 1080.487,3.762 1081.481,3.265 C1077.437,2.308 1081.275,4.884 1079.341,5.897 C1077.038,6.079 1076.297,4.438 1077.752,3.663 C1070.626,5.856 1057.457,8.403 1049.941,5.69 L1051.404,4.924 C1045.547,3.91 1044.821,10.186 1039.387,7.823 L1040.423,7.368 C1027.73,6.3 1013.703,8.693 1004.013,4.863 C1002.179,8.555 991.438,3.268 990.643,8.405 C983.381,5.885 985.46,4.958 975.238,3.285 C972.513,3.058 971.186,6.505 967.82,7.052 L967.728,4.368 L963.161,7.2 L960.713,3.998 L957.56,4.699 C958.82,4.852 960.242,5.894 960.051,6.667 C955.119,7.899 948.006,4.837 947.877,3.461 L936.203,5.775 C936.462,4.695 938.411,4.315 939.958,3.621 C933.733,6.382 938.817,0.795 933.107,3.331 C933.879,3.937 932.704,4.928 932.576,5.47 C929.72,3.86 923.237,3.867 918.435,4.567 L919.356,2.715 C910.683,2.271 901.083,3.664 891.362,3.662 C894.849,4.513 894.064,7.724 891.212,8.043 L890.063,5.21 C888.224,6.969 893.049,6.268 889.266,8.429 C885.635,8.111 886.815,5.214 888.903,4.278 L884.486,5.281 C884.222,4.434 885.255,3.987 885.522,2.902 C883.718,4.674 877.891,0.086 875.287,3.152 L875.033,2.308 C865.308,2.318 860.908,3.312 852.987,3.477 C852.841,5.93 849.739,5.398 847.387,7.385 C841.561,6.621 835.095,4.721 828.09,4.95 C823.158,6.183 826.656,7.028 824.439,8.492 C824.077,6.262 817.07,6.496 820.695,4.878 C812.281,5.274 809.945,5.366 799.305,7.213 C800.463,8.116 801.763,8.513 801.097,9.277 C799.162,9.647 796.697,8.355 796.973,7.286 L797.485,7.049 C785.548,10.437 769.888,0.644 760.387,5.327 L760.914,5.094 L751.06,7.548 C746.515,7.18 753.779,5.865 750.409,4.495 C739.777,8.252 733.595,4.016 724.843,6.524 C718.035,-0.03 700.768,7.07 691.596,2.899 L692.124,4.448 C689.766,5.976 689.262,3.57 687.518,3.222 C687.773,4.424 690.091,4.608 688.622,5.451 C668.577,7.393 647.229,3.334 626.675,2.005 C619.153,1.613 622.433,10.036 612.94,6.368 L615.623,3.479 C600.462,6.982 584.599,3.467 569.76,6.449 C570.64,5.782 570.662,4.918 572.113,4.924 C568.971,2.843 560.514,4.861 560.467,6.57 C558.151,6.382 559.921,5.028 558.496,4.164 C555.342,2.944 550.603,6.859 548.927,4.787 C548.643,4.452 549.81,4.104 550.385,3.945 C548.337,4.962 540.827,3.718 542.799,6.121 C537.223,4.991 532.139,7.233 527.689,5.82 C524.801,8.527 518.145,4.558 517.235,8.371 C517.618,4.431 507.453,5.23 503.932,7.092 C505.107,5.898 500.865,5.869 502.243,4.214 C498.22,4.283 494.533,5.028 495.241,7.05 C487.815,2.362 480.362,10.892 476.168,4.867 C464.227,7.026 453.175,8.498 442.43,9.452 C442.803,5.525 454.309,9.024 453.836,4.901 C443.642,6.556 437.774,9.95 427.658,9.034 C425.037,8.506 429.14,7.325 430.023,6.653 C419.841,8.303 410.324,6.362 401.267,8.533 C401.292,8.164 402.271,7.763 403.19,7.457 C401.404,7.591 399.037,6.895 399.241,8.685 L400.985,8.191 C403.842,10.771 393.905,13.629 393.592,14.999 C396.605,9.874 384.632,13.747 389.427,7.265 C388.254,7.601 386.781,8.455 387.057,9.646 C385.308,9.307 384.753,8.611 386.517,7.246 C380.121,8.238 382.404,10.126 376.603,10.107 C376.621,9.245 377.792,8.905 378.388,7.889 C375.457,9.581 372.515,11.281 367.612,10.565 C367.908,10.043 367.333,9.369 368.796,9.377 C360.383,9.665 354.471,13.913 345.235,12.316 C347.946,8.552 342.093,11.089 341.59,7.84 L336.632,8.825 L338.63,10.397 C334.279,10.357 330.444,12.737 326.705,11.687 L329.931,10.336 L321.785,10.98 L326.401,12.196 C322.009,13.89 326.888,16.31 321.096,15.423 C322.273,15.089 316.748,15.397 314.474,13.49 C314.474,13.49 314.489,13.49 314.489,13.483 C312.344,14.528 310.134,15.622 306.917,14.825 C306.077,13.791 307.578,11.231 307.032,10.542 C304.919,13.267 296.851,11.331 294.174,14.232 C295.07,13.548 295.111,11.843 294.813,11.494 L293.04,13.709 C291.024,13.01 290.726,12.672 291.051,11.309 C284.991,10.923 292.989,15.42 285.793,13.672 C286.356,13.49 286.083,13.162 287.258,12.82 C280.033,11.923 273.314,14.27 266.675,13.209 C264.706,9.944 272.469,12.388 270.217,9.634 C260.655,10.26 250.42,13.622 241.158,12.885 L242.887,13.242 C241.616,17.865 235.983,10.981 231.308,13.176 C232.452,12.829 232.804,10.61 232.494,11.124 C226.153,10.405 219.536,12.303 209.932,13.788 L211.121,12.6 C207.378,11.551 201.276,12.025 197.239,11.494 C196.043,12.687 193.737,12.5 195.145,14.219 C182.677,7.505 171.417,17.927 160.354,12.333 C161.674,12.315 163.499,11.288 162.448,11.284 L153.045,12.409 C153.795,14.42 154.282,13.622 156.263,15.184 C155.076,16.381 152.425,17.31 150.096,17.319 C154.319,15.976 150.048,14.088 148.219,12.973 C148.525,13.587 147.901,14.271 148.059,14.897 C143.131,11.336 147.248,18.948 140.532,16.564 L140.886,15.502 C138.374,16.05 136.067,17.455 133.358,17.16 C132.229,14.838 136.027,16.065 136.193,14.15 C132.392,14.297 128.703,18.585 125.254,16.279 C126.868,15.625 129.189,15.606 130.804,14.956 C127.048,12.235 126.613,12.931 123.828,12.509 L124.103,12.57 L117.662,11.356 L119.301,12.087 C114.563,18.177 109.617,13.232 103.221,17.225 C109.436,13.441 104.242,15.048 104.709,12.409 C103.073,11.682 100.582,10.869 101.287,10.123 C98.264,12.263 96.223,8.467 91.96,11.591 C91.764,10.74 88.717,11.518 89.393,9.383 C85.455,10.063 90.329,10.859 90.002,11.927 C83.941,14.846 75.716,8.456 66.995,12.467 C59.472,14.129 58.09,16.995 51.102,18.446 C48.741,17.095 53.024,15.349 53.024,15.349 C49.214,14.111 46.354,14.352 42.772,15.334 C43.496,14.595 42.744,13.971 41.649,13.018 C38.772,13.254 39.735,16.119 35.933,14.878 C36.582,13.932 37.413,12.412 38.798,11.459 C35.408,12.251 32.065,13.851 28.557,14.629 C27.622,13.151 30.667,12.377 31.902,11.4 C27.959,12.081 21.686,12.777 20.475,15.125 L23.009,15.955 C21.571,16.068 22.262,13.946 23.32,13.513 C26.695,11.665 28.2,14.308 28.396,15.161 L25.895,15.713 C28.481,20.685 35.933,14.878 40.97,15.152 L38.884,18.779 L44.036,15.758 C45.135,16.7 45.894,18.714 43.411,19.27 C47.026,21.04 46.601,17.969 49.707,19.951 C50.051,20.262 49.896,20.44 49.582,20.586 L53.101,19.495 C52.414,20.254 53.697,22.05 51.532,21.531 C57.864,23.604 61.724,18.778 64.118,21.514 L63.588,21.741 C72.362,20.486 64.428,19.08 71.003,15.936 L75.458,22.474 L76.31,19.812 C77.218,19.907 79.009,20.101 78.684,21.165 C82.047,19.339 78.104,20.012 80.056,18.295 C84.421,20.697 92.069,17.11 93.067,21.343 C94.626,19.323 88.891,19.797 93.541,18.377 C94.883,22.932 98.92,17.583 102.908,19.654 C101.694,22.016 97.918,20.785 101.909,22.865 C104.298,18.885 109.667,23.704 113.024,22.937 C113.171,19.769 120.325,21.592 125.955,20.521 C125.604,21.584 136.569,22.225 141.816,23.349 L141.664,23.876 C142.667,20.681 148.081,21.26 152.017,20.587 C151.867,22.499 151.16,23.263 149.029,24.121 L152.735,24.094 C153.602,23.07 154.759,22.521 157.156,22.155 L156.233,24.546 C161.162,24.396 166.15,21.694 172.495,23.273 C172.843,21.033 167.433,17.074 174.13,15.566 C174.384,16.776 174.641,18.832 172.884,19.334 C173.458,19.174 174.931,18.319 176.092,18.835 L173.421,20.876 C176.31,21.752 174.924,19.175 177.235,19.355 C177.195,21.068 178.946,20.575 178.622,21.941 C178.032,22.111 176.605,21.232 175.722,21.917 C178.326,22.219 181.474,23.222 182.523,24.521 C182.29,23.547 182.514,22.209 184.419,21.976 C189.345,21.833 186.111,24.037 188.989,24.915 C190.177,23.709 193.326,24.935 193.4,22.363 C194.843,22.371 195.115,23.58 195.673,24.266 C198.219,23.126 207.585,23.899 204.7,21.176 L204.045,20.994 C204.169,20.952 204.314,20.948 204.464,20.891 C204.444,20.891 204.464,20.891 204.444,20.891 L204.464,20.891 C212.814,18.307 221.832,22.279 230.125,21.15 L230.114,22.017 C235.06,21.009 241.13,21.395 244.663,19.538 C246.127,19.534 248.124,21.085 247.501,22.122 C251.284,21.456 251.703,20.492 257.176,21.892 C253.376,23.407 258.492,23.218 253.28,23.004 C258.197,23.725 259.319,25.099 264.592,22.731 C262.8,24.936 268.3,25.493 270.638,24.832 L267.187,23.267 C269.814,22.936 272.11,23.122 274.448,23.304 L273.196,26.208 C283.27,29.693 291.322,20.143 299.006,26.02 C301.661,23.978 293.534,24.611 295.905,22.234 C300.534,22.603 305.374,26.746 306.824,26.75 C313.169,28.335 312.726,22.493 319.366,23.575 C318.512,22.54 317.702,19.784 322.659,18.796 C327.293,19.165 328.366,23.112 325.447,23.947 C324.334,24.039 323.797,23.709 323.843,23.369 C322.347,23.741 320.384,24.195 322.224,25.307 L322.822,24.274 C325.122,25.317 331.498,25.184 330.005,26.886 C333.504,25.893 331.498,25.184 328.902,24.663 C334.849,26.141 338.185,24.677 344.301,25.658 C343.33,25.088 342.428,23.878 343.399,23.886 C352.372,25.134 347.342,21.917 353.418,21.439 C356.876,23.004 352.191,25.204 358.307,23.862 C362.046,24.924 359.108,26.602 357.624,27.457 C363.195,25.438 368.044,28.729 371.232,29.076 L368.296,29.928 C370.049,29.422 371.488,29.432 372.953,29.432 L371.271,27.375 C372.996,27.722 374.456,27.724 374.427,28.592 C376.198,27.231 373.056,25.152 376.575,23.296 C378.875,24.336 383.57,22.146 384.375,24.887 C377.142,23.973 385.181,27.628 379.064,28.097 C380.243,27.761 381.683,27.771 383.412,28.13 C383.675,28.439 383.173,28.704 382.699,28.862 C389.626,31.288 385.867,25.747 393.04,25.786 C392.133,27.337 394.709,28.714 395.876,28.378 C392.99,28.357 394.487,25.804 397.132,24.613 C401.734,25.8 402.127,23.695 404.534,23.826 L401.784,23.276 C402.712,21.724 405.011,21.922 408.215,21.42 C408.491,22.621 405.306,22.266 406.45,22.785 C410.001,20.056 414.5,25.569 419.456,23.719 C421.755,24.766 419.685,26.625 421.705,27.334 C427.262,25.304 427.734,29.426 433.572,27.747 C431.884,25.679 431.589,26.192 435.697,24.146 L426.098,25.643 L432.25,22.598 C429.353,22.578 426.14,23.925 424.398,23.586 C427.332,21.879 427.028,22.389 425.635,20.677 C429.613,23.774 433.496,18.832 438.09,20.926 L437.969,26.067 C444.868,28.335 450.208,23.387 459.168,24.648 L456.285,23.757 C457.478,21.716 461.815,23.463 464.708,22.615 C464.448,24.341 466.26,24.953 467.5,26.027 C467.345,24.753 474.054,26.121 474.856,22.679 L478.861,24.928 C486.093,25.835 487.093,20.003 494.047,20.568 C491.958,22.439 495.119,23.644 490.469,24.998 C492.792,25.008 494.88,25.316 494.912,24.128 C496.271,25.197 501.338,21.792 503.477,23.418 C504.45,22.655 504.767,20.859 507.371,20.983 C507.655,21.333 507.363,21.838 507.363,21.838 C507.371,20.983 511.439,20.672 509.154,18.772 C516.318,24.11 529.13,18.311 535.37,22.898 C540.431,22.301 546.531,21.733 551.127,21.59 C550.831,22.111 551.114,22.443 550.244,22.276 C556.589,23.844 554.125,17.319 561.347,19.084 C565.044,21.851 557.52,20.602 559.823,21.645 C560.842,27.3 568.529,20.844 573.396,24.128 L572.223,24.468 C575.937,26.371 581.269,22.285 587.335,22.672 C587.335,22.672 587.042,23.176 587.303,23.534 C591.442,20.633 599.289,19.642 605.119,18.825 C603.313,21.042 602.473,20.004 603.587,22.257 C606.201,21.928 602.814,18.641 608.03,17.999 C609.73,19.205 613.497,20.246 614.009,22.643 L609.083,22.791 C611.614,25.893 615.454,22.662 618.053,23.197 L617.726,24.556 C625.273,24.084 625.367,20.669 633.475,20.886 L632.633,19.853 C637.055,16.457 636.357,21.75 640.768,19.218 L642.117,22.646 C645.042,21.812 652.352,19.293 657.595,18.625 C654.629,21.183 648.5,22.506 644.704,24.036 C647.606,24.052 654.555,23.745 656.061,22.052 C654.895,22.381 653.424,23.236 652.271,22.705 C655.82,19.989 660.49,18.645 666.27,18.685 C665.266,25.351 681.33,20.314 685.535,25.472 C695.755,22.974 705.814,26.455 717.719,26.025 C713.478,20.855 721.191,25.865 720.448,20.543 C723.219,20.189 724.275,20.273 724.525,20.622 L732.933,23.767 C734.935,25.311 730.3,24.949 730.561,26.151 C736.639,26.533 733.115,28.397 737.138,29.798 C736.312,27.892 739.245,27.064 742.705,27.774 L737.826,25.336 C746.295,22.471 745.171,29.782 753.718,26.946 L751.019,28.633 C755.406,27.621 767.211,28.612 771.492,24.318 C772.276,24.925 773.304,26.375 771.369,26.771 C781.867,27.382 794.708,22.145 802.869,24.751 L802.071,26.053 C804.032,25.668 805.476,23.598 807.928,24.9 C807.803,25.432 807.139,26.202 808.051,26.265 C809.083,25.819 813.24,23.97 815.836,24.725 L813.628,26.198 C823.861,27.861 829.316,22.569 837.886,21.65 C837.876,25.483 845.932,26.701 849.951,27.312 L849.812,27.848 C861.726,28.286 870.04,24.61 881.069,23.063 C887.923,27.201 904.268,24.728 915.285,27.022 C913.597,26.324 915.542,24.031 917.501,23.636 C920.085,24.409 924.635,20.958 924.234,24.478 L923.316,24.412 C925.268,27.849 930.574,26.916 934.718,26.998 L935.392,22.392 C946.246,29.043 963.782,19.837 969.725,25.814 C972.334,24.658 975.571,24.659 978.159,23.502 L978.026,25.968 C985.282,26.565 988.899,26.864 997.852,26.25 L996.039,28.013 C1001.091,28.156 1002.393,20.888 1007.05,20.728 L1008.466,24.399 C1017.288,24.311 1026.22,27.516 1034.915,24.143 C1034.774,24.686 1034.522,25.75 1033.099,25.904 C1037.245,25.986 1049.161,28.34 1047.636,23.297 C1047.747,26.579 1056.731,23.588 1061.484,22.12 L1060.755,24.548 C1064.765,21.431 1064.89,20.586 1070.498,19.699 C1071.823,20.013 1071.667,21.643 1069.9,21.024 C1074.331,22.282 1073.342,18.717 1078.719,19.991 L1076.729,21.55 C1081.283,21.722 1080.924,20.897 1083.428,19.075 C1086.293,18.096 1092.075,19.654 1092.754,21.85 C1093.364,20.511 1095.855,18.71 1098.545,19.338 C1098.912,20.161 1097.94,20.685 1097.443,20.94 C1105.07,22.556 1108.765,18.079 1114.021,20.441 C1114.13,21.241 1114.475,21.643 1114.914,21.885 C1108.852,21.846 1103.976,21.731 1104.436,21.551 C1104.444,23.785 1109.333,24.164 1105.453,27.271 C1109.374,25.568 1116.078,21.881 1120.849,22.916 C1121.081,23.136 1121.309,23.348 1121.485,23.683 L1120.989,23.939 C1122.089,24.16 1123.083,23.947 1124.005,23.575 C1125.53,23.931 1126.495,24.201 1127.957,24.228 C1128.532,26.082 1133.574,25.204 1136.012,25.286 C1135.8,22.841 1138.999,23.227 1135.999,21.211 C1136.388,21.387 1135.534,21.508 1133.921,21.616 C1133.552,21.689 1133.116,21.726 1132.873,21.875 C1132.92,21.807 1132.977,21.729 1133.041,21.658 C1131.437,21.736 1129.353,21.798 1126.981,21.844 C1128.898,20.593 1130.914,19.543 1133.617,20.894 C1134.863,19.315 1136.236,17.689 1137.005,16.932 C1140.359,20.329 1146.802,22.157 1147.7,24.254 C1155.146,22.855 1165.248,23.292 1169.911,18.671 C1172.036,18.078 1172.35,19.98 1173.149,20.706 C1171.928,21.165 1170.473,21.1 1169.809,21.768 C1174.04,20.576 1182.359,21.262 1183.355,18.053 C1188.699,19.485 1180.364,21.012 1187.701,20.468 L1186.718,21.449 C1201.161,26.533 1210.144,13.172 1226.161,19.702 C1225.05,19.308 1224.495,19.124 1224.265,18.582 C1242.514,21.428 1261.84,15.729 1279.846,20.275 C1284.963,21.183 1285.514,19.135 1288.628,17.562 L1289.749,20.186 L1295.077,17.132 C1302.635,14.887 1308.204,23.547 1317.768,19.312 L1316.532,17.542 C1319.971,17.866 1327.422,16.463 1326.86,18.496 C1327.211,18.179 1327.981,16.656 1329.33,17.571 L1329.439,18.948 L1337.878,16.562 C1344.436,17.533 1336.874,22.028 1346.44,22.266 C1349.99,21.719 1356.545,18.225 1355.209,17.301 C1353.773,17.237 1351.543,16.46 1351.431,15.082 L1354.685,14.353 C1355.254,10.297 1357.74,6.134 1349.749,3.335 L1344.198,5.831 L1342.401,3.871 L1347.077,3.73 C1344.417,1.891 1342.745,3.531 1340.86,4.664 C1340.412,3.616 1339.627,2.888 1338.524,2.504 L1333.076,6.394 C1332.415,4.808 1335.513,3.24 1331.848,2.375 C1329.296,4.18 1334.311,5.925 1330.078,7.119 C1327.411,5.287 1328.189,3.781 1325.068,5.369 C1324.624,4.324 1325.287,3.655 1326.522,3.194 C1323.745,4.455 1319.171,3.747 1317.738,5.909 C1314.963,3.642 1308.361,6.533 1308.622,2.696 C1307.745,3.613 1303.73,5.724 1301.178,5.892 C1305.832,1.283 1291.619,5.652 1292.838,0.725 C1289.401,4.864 1280.377,2.602 1274.271,4.912 C1274.608,4.586 1275.282,3.919 1275.817,4.122 C1272.378,3.795 1271.376,2.554 1269.155,1.78 C1268.731,5.195 1263.374,5.995 1260.49,8.106 C1256.259,4.827 1263.038,4.089 1261.703,0.932 C1261.926,3.698 1254.378,3.719 1255.82,6.02 C1252.593,3.994 1253.045,5.04 1251.373,2.213 C1250.816,6.485 1248.368,2.95 1245.701,5.579 C1241.024,3.49 1244.487,1.585 1239.364,2.898 C1236.922,1.603 1241.473,0.078 1241.473,0.078 L1241.473,0.078 Z M1119.52,7.874 C1119.52,7.85 1119.52,7.833 1119.52,7.824 C1120.579,7.765 1121.469,7.713 1122.036,7.676 C1121.518,7.713 1120.792,7.764 1119.52,7.874 Z M1109.271,7.947 C1110.519,8.041 1112.075,8.051 1113.722,8.029 C1114.076,8.868 1113.698,9.742 1112.668,9.7 C1113.22,9.134 1110.805,8.657 1109.271,7.947 Z M1131.014,24.838 C1129.391,25.185 1128.841,24.713 1128.625,24.208 C1129.387,24.16 1130.279,24.074 1131.454,23.9 C1131.5,23.809 1131.598,23.703 1131.644,23.605 C1131.491,24.07 1131.319,24.512 1131.014,24.838 L1131.014,24.838 Z"/>
    <path d="M1133.922 21.614C1134.147 21.558 1134.277 21.453 1134.585 21.431 1134.25 21.216 1133.941 21.031 1133.618 20.891 1133.42 21.142 1133.218 21.402 1133.042 21.656 1133.339 21.641 1133.646 21.633 1133.922 21.614zM204.702 21.176L204.92 21.231C204.738 21.135 204.573 21.036 204.466 20.892 204.609 21 204.609 21.076 204.702 21.176L204.702 21.176z"/>
    <polygon points="967.713 3.747 967.729 4.367 968.62 3.824"/>
    <path d="M148.221 12.971C148.113 12.754 147.898 12.537 147.477 12.346 147.512 12.509 147.828 12.725 148.221 12.971zM123.83 12.507L120.38 11.646C121.872 12.134 122.962 12.369 123.83 12.507zM105.078 11.359C104.84 11.788 104.773 12.109 104.711 12.407 104.727 12.414 104.736 12.414 104.748 12.423L105.078 11.359zM403.191 7.454C403.444 7.437 403.692 7.405 403.915 7.345 405.613 6.863 404.456 7.054 403.191 7.454zM314.491 13.479C315.433 13.031 316.36 12.595 317.341 12.313 315.76 12.13 314.532 12.085 314.491 13.479zM502.253 4.167C502.244 4.183 502.253 4.188 502.244 4.21 502.452 4.2 502.64 4.208 502.855 4.208L502.253 4.167zM321.467 12.341C319.884 11.86 318.565 11.971 317.341 12.313 318.635 12.474 320.163 12.715 321.467 12.341zM23.807 10.525L22.903 10.427C22.918 10.59 22.864 10.719 22.796 10.819L23.807 10.525zM22.795 10.82L21.795 11.114C22.255 11.112 22.652 11.092 22.795 10.82zM19.686 11.737L21.795 11.113C21.064 11.11 20.16 11.037 19.686 11.737zM48.63 11.571L48.914 10.685C48.759 10.864 48.659 11.156 48.63 11.571zM56.174 11.292C54.373 11.095 51.653 9.408 49.143 9.979L48.914 10.687C50.089 9.36 54.468 12.789 56.174 11.292zM87.693 22.156L81.372 21.464C82.479 22.402 83.936 23.668 81.061 23.907 89.039 26.701 79.412 21.801 87.693 22.156zM107.295 23.46C103.903 23.904 107.339 24.834 107.165 25.363 109.313 24.496 109.835 24.279 107.295 23.46zM248.928 22.979L248.596 25.204C251.212 24.883 248.619 24.346 248.928 22.979z"/>
    <polygon points="275.968 11.372 273.414 10.001 272.208 12.041"/>
    <polygon points="292.011 27.187 290.87 27.512 295.232 26.682"/>
    <path d="M529.883 25.577L529.081 22.835C527.315 23.337 526.951 26.414 529.883 25.577zM632.563 22.425C633.685 23.793 636.577 24.674 638.352 23.321 636.041 23.136 633.737 22.076 632.563 22.425z"/>
    <polygon points="940.556 25.843 938.486 26.766 942.376 25.991"/>
  </g>
</svg>
