<svg xmlns="http://www.w3.org/2000/svg" width="15" height="15" viewBox="0 0 15 15">
  <g fill="#FFF">
    <path d="M6.05934375,12.0316875 C2.76628125,12.0316875 0.0871875,9.35240625 0.0871875,6.05915625 C0.0871875,2.7661875 2.76628125,0.087 6.05934375,0.087 C9.3523125,0.087 12.0313125,2.7661875 12.0313125,6.05915625 C12.0313125,9.35240625 9.3523125,12.0316875 6.05934375,12.0316875 Z M6.05934375,0.837 C3.1798125,0.837 0.8371875,3.17971875 0.8371875,6.05915625 C0.8371875,8.938875 3.1798125,11.2816875 6.05934375,11.2816875 C8.93878125,11.2816875 11.2813125,8.938875 11.2813125,6.05915625 C11.2813125,3.17971875 8.93878125,0.837 6.05934375,0.837 Z"/>
    <polygon points="9.155 12.042 15.683 12.042 15.683 12.792 9.155 12.792" transform="rotate(45 12.419 12.417)"/>
  </g>
</svg>
