<svg xmlns="http://www.w3.org/2000/svg" width="30" height="30" viewBox="0 0 30 30">
  <g fill="#FFF">
    <polygon points="9.49 6.365 9.49 23.635 24.446 15"/>
    <path d="M14.9470408,29.9295918 C6.71510204,29.9295918 0.017755102,23.232398 0.017755102,15 C0.017755102,6.76806122 6.71494898,0.0707142857 14.9470408,0.0707142857 C23.1791327,0.0707142857 29.8761735,6.76806122 29.8761735,15 C29.8761735,23.2322449 23.1789796,29.9295918 14.9470408,29.9295918 Z M14.9470408,1.29520408 C7.3902551,1.29520408 1.2422449,7.44321429 1.2422449,15 C1.2422449,22.5569388 7.3902551,28.705102 14.9470408,28.705102 C22.5038265,28.705102 28.6518367,22.5570918 28.6518367,15 C28.6518367,7.44321429 22.5038265,1.29520408 14.9470408,1.29520408 Z"/>
  </g>
</svg>
